<?xml version="1.0" encoding="UTF-8"?>
<svg id="Layer_1" data-name="Layer 1" xmlns="http://www.w3.org/2000/svg" viewBox="0 0 1920 1080">
  <defs>
    <style>
      .cls-1 {
        fill: none;
        stroke: #40270d;
        stroke-linecap: round;
        stroke-miterlimit: 10;
        stroke-width: 78.22px;
      }
    </style>
  </defs>
  <path class="cls-1" d="M-52.78,1005.44c280.89,0,1517.11,54,1685.32-320.39,16.01-35.63,45.13-66.5,45.13-66.5,24.32-42.73,47.29-83.08,50.69-136.42,2.04-32.01,5.82-91.27-36.87-128.1-26.81-23.13-75.67-41.04-118.67-18.02-44.8,23.97-51.85,75.49-52.5,80.94-57.79-6.7-108.84,21.83-124.04,64.34-16.58,46.38,15.59,91.3,20.96,97.16,25.83,28.18,62.66,45.24,100.04,52.34,92.99,15.64,177.72-13.9,257.65-48.17,217.34-93.19,291.69-348.07,311.66-411.87"/>
</svg>