<?xml version="1.0" encoding="UTF-8"?>
<svg id="Layer_1" data-name="Layer 1" xmlns="http://www.w3.org/2000/svg" viewBox="0 0 1920 1080">
  <defs>
    <style>
      .cls-1 {
        fill: none;
        stroke: #77204a;
        stroke-linecap: round;
        stroke-miterlimit: 10;
        stroke-width: 41.82px;
      }
    </style>
  </defs>
  <path class="cls-1" d="M2109.17,924.11c-192.44,73.09-442.55,136.71-644.29,67.12-90.57-31.24-194.48-110.24-197.77-214.69-3.04-96.41,82.17-161.95,160.57-201.17,59.63-29.83,101.92-53.23,190.59-68.92,63.72-11.27,123.28,6.31,165.24,57.85,33.36,40.98,49.62,102.78,35.62,154.5-26.01,96.1-131.56,127.44-220.39,131.03-98.71,3.99-197.72-26.9-283.22-74.76-18.31-10.25-36.13-21.4-53.31-33.45-54.57-38.27-207.79-145.26-212.69-328.14-4.64-173.33,120.2-335.9,275.78-373.53,91.39-22.1,233.74-10.86,296.73,83.78,4.9,7.37,49.07,75.85,24.44,143.13-36.49,99.66-196.04,120.37-269.96,118.69-263.54-6-441.65-374.24-458.6-407.68"/>
</svg>