<?xml version="1.0" encoding="UTF-8"?>
<svg id="Layer_1" data-name="Layer 1" xmlns="http://www.w3.org/2000/svg" viewBox="0 0 316 114.67">
  <defs>
    <style>
      .cls-1 {
        fill: #fff;
      }
    </style>
  </defs>
  <path class="cls-1" d="M16.46,48.12h6.33c1.59,0,2.91,1.31,2.81,2.86-.94,14.77-1.64,35.86-1.03,50.63.05.98-.52,1.64-1.5,1.73l-6.52.56c-1.64.14-3.09-1.12-3.05-2.77.66-14.72,2.11-36.84,1.22-51.14-.05-1.13.66-1.87,1.73-1.87Z"/>
  <path class="cls-1" d="M29.77,56.64h12.99c1.22,0,2.3.89,2.53,2.06,1.59,8.34,3.61,20.06,5.81,27.8.23-7.83.94-25.5.37-34.59-.09-1.12.56-1.87,1.69-1.87h6.28c1.64,0,2.91,1.31,2.81,2.91-.89,12.56-1.17,30.28-.66,42.52.1.98-.52,1.69-1.55,1.73-3.98.28-7.78.33-11.53.56-1.27.09-2.39-.75-2.72-2.02-2.25-9.89-4.45-21.61-7.31-31.27-.42,9.52-.33,26.72.14,37.03.09.98-.56,1.69-1.5,1.78l-6.47.47c-1.69.14-3.1-1.17-3.05-2.77.56-12.7,1.41-30.05.37-42.47-.05-1.08.66-1.87,1.78-1.87Z"/>
  <path class="cls-1" d="M74.06,97.99h-6.28c-1.64,0-2.91-1.31-2.81-2.91.94-13.12.66-36.98.23-48.33-2.2.05-4.45.14-6.7.23-1.5.09-2.77-1.03-2.81-2.58l-.09-3.52c-.09-1.12.7-1.87,1.88-1.83,8.2.47,17.39.56,25.69.14,1.78-.09,3.14,1.27,3,3l-.28,3.19c-.05.98-.84,1.59-1.88,1.55-2.72-.23-5.44-.33-8.16-.38-.52,11.77-.75,36.66-.05,49.59.09,1.08-.66,1.83-1.73,1.83Z"/>
  <path class="cls-1" d="M79.52,93.84c.37-16.08.42-33.94-.28-44.39-.05-.05.84-.09,2.06-.09,5.44-.05,13.59-.14,18.99,0,1.31.05,2.44,1.03,2.48,2.34,0,1.64-.09,3.47,0,5.39,0,.19-.89.14-2.16-.14-3.52-.7-6.14-.66-10.59-.66-.09,2.77-.14,6.23-.19,9,1.17-.05,2.34-.09,3.56-.19,1.59-.19,3,1.03,3.05,2.67,0,.56,0,1.13.05,1.69,0,1.13-.75,1.83-1.92,1.78-1.59-.05-3.19-.09-4.73-.05.05,5.02.19,13.69.47,18.7,1.64,0,4.41-.84,6.84-1.64,1.87-.56,3.66.98,3.66,2.95,0,1.31,0,2.48-.05,3.89.05,1.08-.37,1.78-.99,1.73-3.7-.14-12.61-.23-17.48-.19-1.59,0-2.86-1.27-2.77-2.81Z"/>
  <path class="cls-1" d="M105.63,49.53c4.12-.14,8.11-.66,12.23-.23,1.97.19,3.56.56,5.44,1.27,9.52,4.08,7.88,13.36,2.44,20.06-.42.52-.89,1.03-1.31,1.5,1.97,5.48,8.31,20.8,11.97,28.16.8,1.55.05,3-1.55,3.05-2.06.09-4.17.23-6.19.33-1.08,0-2.06-.66-2.39-1.64-2.63-7.03-8.83-23.47-11.64-29.19.19,5.25.37,12.14.8,17.72,0,1.03-.61,1.73-1.59,1.83l-6.52.47c-1.59.14-3-1.22-3-2.91.33-12.66.84-26.11-.37-38.44-.14-1.13.56-1.92,1.69-1.97ZM114.49,67.53c3.28,0,6.28-2.77,7.08-5.95,1.08-4.5-3.98-4.87-6.98-4.45-.09,3.47-.09,6.94-.09,10.41Z"/>
  <path class="cls-1" d="M145.41,97.99h-6.28c-1.64,0-2.91-1.31-2.81-2.91.94-13.12.66-36.98.23-48.33-2.2.05-4.45.14-6.7.23-1.5.09-2.77-1.03-2.81-2.58l-.09-3.52c-.09-1.12.7-1.87,1.88-1.83,8.2.47,17.39.56,25.69.14,1.78-.09,3.14,1.27,3,3l-.28,3.19c-.05.98-.84,1.59-1.88,1.55-2.72-.23-5.44-.33-8.16-.38-.52,11.77-.75,36.66-.05,49.59.09,1.08-.66,1.83-1.73,1.83Z"/>
  <path class="cls-1" d="M190.78,95.57h-11.91c-1.36,0-2.44-1.03-2.63-2.39-.61-5.34-1.88-11.2-2.63-16.27-.94,5.39-1.83,14.53-2.53,20.53-.1.84-.75,1.41-1.64,1.41h-11.48c-1.5,0-2.77-1.17-2.77-2.67,0-12.94-1.55-33.84-3-46.5-.14-1.03.52-1.83,1.59-1.92,2.16-.14,4.31-.28,6.52-.47,1.5-.09,2.86,1.08,2.91,2.63.33,10.59,1.17,26.16,2.11,35.77,2.01-9.98,3.42-15,4.87-24.52.14-.89.8-1.41,1.73-1.36,1.41,0,3.28-.05,4.88-.09,1.36-.05,2.53.98,2.72,2.34,1.08,8.06,1.88,12,3.37,20.67,1.55-8.81,3.05-21.98,3.89-31.22.1-.8.66-1.36,1.5-1.41,2.11-.14,4.17-.33,6.28-.47,1.87-.14,3.37,1.5,3.09,3.33-2.25,12.56-4.5,28.92-5.16,41.06-.09.94-.8,1.55-1.73,1.55Z"/>
  <path class="cls-1" d="M201.24,48.12h6.33c1.59,0,2.91,1.31,2.81,2.86-.94,14.77-1.64,35.86-1.03,50.63.05.98-.52,1.64-1.5,1.73l-6.52.56c-1.64.14-3.09-1.12-3.05-2.77.66-14.72,2.11-36.84,1.22-51.14-.05-1.13.66-1.87,1.73-1.87Z"/>
  <path class="cls-1" d="M213.67,56.07h12.99c1.22,0,2.3.89,2.53,2.06,1.59,8.34,3.61,20.06,5.81,27.8.23-7.83.94-25.5.37-34.59-.09-1.12.56-1.87,1.69-1.87h6.28c1.64,0,2.91,1.31,2.81,2.91-.89,12.56-1.17,30.28-.66,42.52.1.98-.52,1.69-1.55,1.73-3.98.28-7.78.33-11.53.56-1.27.09-2.39-.75-2.72-2.02-2.25-9.89-4.45-21.61-7.31-31.27-.42,9.52-.23,27.36.24,37.67.09.98-.56,1.69-1.5,1.78l-6.47.47c-1.69.14-3.1-1.17-3.05-2.77.56-12.7,1.31-30.68.28-43.11-.05-1.08.66-1.87,1.78-1.87Z"/>
  <path class="cls-1" d="M249.06,95.64c.4-17.15.45-36.2-.3-47.35-.05-.05.9-.1,2.2-.1,5.8-.05,14.5-.15,20.25,0,1.4.05,2.6,1.1,2.65,2.5,0,1.75-.1,3.7,0,5.75,0,.2-.95.15-2.3-.15-3.75-.75-6.55-.7-11.3-.7-.1,2.95-.15,6.65-.2,9.6,1.25-.05,2.5-.1,3.8-.2,1.7-.2,3.2,1.1,3.25,2.85,0,.6,0,1.2.05,1.8,0,1.2-.8,1.95-2.05,1.9-1.7-.05-3.4-.1-5.05-.05.05,5.35.2,14.6.5,19.95,1.75,0,4.7-.9,7.3-1.75,2-.6,3.9,1.05,3.9,3.15,0,1.4,0,2.65-.05,4.15.05,1.15-.4,1.9-1.05,1.85-3.95-.15-13.45-.25-18.65-.2-1.7,0-3.05-1.35-2.95-3Z"/>
  <path class="cls-1" d="M276.5,49.07s.19,0,.52-.05h.52c.28,0,.61-.05,1.03-.05,4.92-.23,7.59-.23,9.33-.14,11.77.89,16.59,7.92,16.78,24.56.19,16.41-5.31,25.15-18.71,25.8-1.87.09-3.94,0-7.22-.28-1.83-.19-2.58-.94-2.53-2.63.37-18.7.62-33.54.29-47.18v-.05ZM295.63,73.49c.42-11.25-2.02-15.89-8.44-16.17-.8,18.33-.84,27.38-.1,31.69,5.72-.28,8.2-4.69,8.53-15.52Z"/>
  <path class="cls-1" d="M203.6,31.93l1.95-4.39c.41-.91,1.74-.77,1.95.2l1,4.7c.09.44.46.76.9.81l4.78.5c.99.1,1.27,1.42.41,1.91l-4.16,2.4c-.39.22-.58.67-.49,1.11l1,4.7c.21.98-.95,1.65-1.7.98l-3.57-3.21c-.33-.3-.82-.35-1.2-.13l-4.16,2.4c-.86.5-1.86-.4-1.45-1.31l1.95-4.39c.18-.41.08-.89-.25-1.18l-3.57-3.21c-.74-.67-.2-1.89.8-1.79l4.78.5c.44.05.87-.2,1.05-.6Z"/>
  <path class="cls-1" d="M18.28,31.21l1.95-4.39c.41-.91,1.74-.77,1.95.2l1,4.7c.09.44.46.76.9.81l4.78.5c.99.1,1.27,1.42.41,1.91l-4.16,2.4c-.39.22-.58.67-.49,1.11l1,4.7c.21.98-.95,1.65-1.7.98l-3.57-3.21c-.33-.3-.82-.35-1.2-.13l-4.16,2.4c-.86.5-1.86-.4-1.45-1.31l1.95-4.39c.18-.41.08-.89-.25-1.18l-3.57-3.21c-.74-.67-.2-1.89.8-1.79l4.78.5c.44.05.87-.2,1.05-.6Z"/>
  <path class="cls-1" d="M21.3,32.97s92.11-49.96,182.32,0l-3.09,3.54S115.23.44,23.17,37.25l-1.87-4.28Z"/>
</svg>