<svg width="796" height="950" viewBox="0 0 796 950" fill="none" xmlns="http://www.w3.org/2000/svg">
<path d="M767.56 949.334L796 949.334L796 926.213C795.621 926.213 795.242 926.269 794.864 926.269C779.176 926.269 766.455 915.083 766.455 901.289C766.455 887.494 779.176 876.308 794.864 876.308C795.242 876.308 795.621 876.336 796 876.364L796 855.325C780.312 855.325 767.592 844.139 767.592 830.345C767.592 816.55 780.312 805.364 796 805.364L796 784.381C780.312 784.381 767.592 773.195 767.592 759.401C767.592 745.606 780.312 734.42 796 734.42L796 713.437C780.312 713.437 767.592 702.251 767.592 688.457C767.592 674.662 780.312 663.476 796 663.476L796 642.493C780.312 642.493 767.592 631.307 767.592 617.513C767.592 603.718 780.312 592.532 796 592.532L796 571.549C780.312 571.549 767.592 560.363 767.592 546.569C767.592 532.774 780.312 521.588 796 521.588L796 500.605C780.312 500.605 767.592 489.419 767.592 475.625C767.592 461.83 780.312 450.644 796 450.644L796 429.661C780.312 429.661 767.592 418.475 767.592 404.681C767.592 390.886 780.312 379.7 796 379.7L796 358.717C780.312 358.717 767.592 347.531 767.592 333.737C767.592 319.942 780.312 308.756 796 308.756L796 287.773C780.312 287.773 767.592 276.587 767.592 262.793C767.592 248.998 780.312 237.812 796 237.812L796 216.829C780.312 216.829 767.592 205.643 767.592 191.849C767.592 178.054 780.312 166.868 796 166.868L796 145.885C780.312 145.885 767.592 134.699 767.592 120.905C767.592 107.11 780.312 95.9243 796 95.9243L796 74.9409C780.312 74.9409 767.592 63.7553 767.592 49.9606C767.592 36.1659 780.312 24.9803 796 24.9803L796 6.06422e-05L767.56 5.81559e-05C767.56 0.166593 767.56 0.333128 767.56 0.499664C767.56 14.2943 754.84 25.4799 739.152 25.4799C723.464 25.4799 710.744 14.2943 710.744 0.499659C710.744 0.333124 710.744 0.166588 710.744 5.31889e-05L682.335 5.07053e-05C682.335 0.166586 682.335 0.333121 682.335 0.499656C682.335 14.2943 669.615 25.4799 653.927 25.4799C638.239 25.4799 625.519 14.2943 625.519 0.499651C625.519 0.333116 625.519 0.166581 625.519 4.57383e-05L597.111 4.32547e-05C597.111 0.166578 597.111 0.333114 597.111 0.499649C597.111 14.2943 584.39 25.4799 568.702 25.4799C553.015 25.4799 540.294 14.2943 540.294 0.499644C540.294 0.333109 540.294 0.166573 540.294 3.82877e-05L511.886 3.58042e-05C511.886 0.166571 511.886 0.333106 511.886 0.499641C511.886 14.2943 499.165 25.4799 483.477 25.4799C467.79 25.4799 455.069 14.2943 455.069 0.499636C455.069 0.333101 455.069 0.166566 455.069 3.08371e-05L426.661 2.83536e-05C426.661 0.166564 426.661 0.333099 426.661 0.499634C426.661 14.2943 413.94 25.4799 398.253 25.4799C382.565 25.4799 369.844 14.2943 369.844 0.499629C369.844 0.333094 369.844 0.166559 369.844 2.33865e-05L341.436 2.0903e-05C341.436 0.166556 341.436 0.333091 341.436 0.499626C341.436 14.2943 328.715 25.4799 313.028 25.4799C297.34 25.4799 284.619 14.2943 284.619 0.499621C284.619 0.333086 284.619 0.166551 284.619 1.59359e-05L256.211 1.34524e-05C256.211 0.166549 256.211 0.333084 256.211 0.499619C256.211 14.2943 243.491 25.4799 227.803 25.4799C212.115 25.4799 199.395 14.2943 199.395 0.499614C199.395 0.333079 199.395 0.166544 199.395 8.48532e-06L170.986 6.00179e-06C170.986 0.166541 170.986 0.333076 170.986 0.499612C170.986 14.2943 158.266 25.4799 142.578 25.4799C126.89 25.4799 114.17 14.2943 114.17 0.499607C114.17 0.333071 114.17 0.166536 114.17 1.03472e-06L85.7614 -1.44881e-06C85.4458 13.5726 72.8831 24.4807 57.3848 24.4807C41.8865 24.4807 29.3237 13.5726 29.0081 -6.41035e-06L2.20165e-05 -8.94631e-06L1.98302e-05 25.0081C0.189408 25.0081 0.378797 25.0081 0.568186 25.0081C16.2559 25.0081 28.9765 36.1937 28.9765 49.9883C28.9765 63.783 16.2559 74.9686 0.568181 74.9686C0.378793 74.9686 0.189404 74.9686 1.54625e-05 74.9686L1.36232e-05 96.0075C0.189402 96.0075 0.378791 96.0075 0.568179 96.0075C16.2559 96.0075 28.9765 107.193 28.9765 120.988C28.9765 134.782 16.2559 145.968 0.568175 145.968C0.378786 145.968 0.189398 145.968 9.25554e-06 145.968L7.41625e-06 167.007C0.189396 167.007 0.378785 167.007 0.568173 167.007C16.2559 167.007 28.9765 178.193 28.9765 191.987C28.9765 205.782 16.2559 216.968 0.568169 216.968C0.37878 216.968 0.189392 216.968 3.04856e-06 216.968L1.20928e-06 238.007C0.18939 238.007 0.378778 238.007 0.568167 238.007C16.2559 238.007 28.9765 249.192 28.9765 262.987C28.9764 276.781 16.2558 287.967 0.568163 287.967C0.378774 287.967 0.189385 287.967 -3.15841e-06 287.967L-4.99768e-06 309.006C0.189384 309.006 0.378772 309.006 0.568161 309.006C16.2558 309.006 28.9764 320.192 28.9764 333.986C28.9764 347.781 16.2558 358.967 0.568156 358.967C0.378768 358.967 0.189379 358.967 -9.36538e-06 358.967L-1.12047e-05 380.006C0.189377 380.006 0.378766 380.006 0.568155 380.006C16.2558 380.006 28.9764 391.191 28.9764 404.986C28.9764 418.78 16.2558 429.966 0.56815 429.966C0.378762 429.966 0.189373 429.966 -1.55724e-05 429.966L-1.74116e-05 451.005C0.189371 451.005 0.37876 451.005 0.568148 451.005C16.2558 451.005 28.9764 462.191 28.9764 475.985C28.9764 489.78 16.2558 500.966 0.568144 500.966C0.378755 500.966 0.189367 500.966 -2.17793e-05 500.966L-2.36186e-05 522.004C0.189365 522.004 0.378754 522.004 0.568142 522.004C16.2558 522.004 28.9764 533.19 28.9764 546.985C28.9764 560.779 16.2558 571.965 0.568138 571.965C0.378749 571.965 0.189361 571.965 -2.79863e-05 571.965L-2.98256e-05 593.004C0.189359 593.004 0.378747 593.004 0.568136 593.004C16.2558 593.004 28.9764 604.19 28.9764 617.984C28.9764 631.779 16.2558 642.965 0.568132 642.965C0.378743 642.965 0.189354 642.965 -3.41933e-05 642.965L-3.60326e-05 664.004C0.189353 664.004 0.378741 664.004 0.56813 664.004C16.2558 664.004 28.9764 675.189 28.9764 688.984C28.9764 702.779 16.2558 713.964 0.568125 713.964C0.378737 713.964 0.189348 713.964 -4.04002e-05 713.964L-4.22395e-05 735.003C0.189346 735.003 0.378735 735.003 0.568123 735.003C16.2558 735.003 28.9764 746.189 28.9764 759.983C28.9764 773.778 16.2558 784.964 0.568119 784.964C0.378731 784.964 0.189342 784.964 -4.66072e-05 784.964L-4.84465e-05 806.002C0.18934 806.002 0.378729 806.002 0.568117 806.002C16.2558 806.002 28.9764 817.188 28.9764 830.983C28.9764 844.777 16.2558 855.963 0.568113 855.963C0.378724 855.963 0.189336 855.963 -5.28142e-05 855.963L-5.46535e-05 877.002C15.4351 877.28 27.8401 888.326 27.8401 901.955C27.8401 915.583 15.4351 926.629 -5.90163e-05 926.907L-6.10352e-05 950L29.008 950C29.008 949.833 29.008 949.667 29.008 949.5C29.008 935.706 41.7286 924.52 57.4163 924.52C73.104 924.52 85.8245 935.706 85.8245 949.5C85.8245 949.667 85.8245 949.833 85.8245 950L114.233 950C114.548 936.427 127.111 925.519 142.61 925.519C158.108 925.519 170.671 936.427 170.986 950L199.394 950C199.71 936.427 212.273 925.519 227.771 925.519C243.27 925.519 255.832 936.427 256.148 950L284.556 950C284.872 936.427 297.435 925.519 312.933 925.519C328.431 925.519 340.994 936.427 341.31 950L369.718 950C370.034 936.427 382.596 925.519 398.095 925.519C413.593 925.519 426.156 936.427 426.471 950L454.88 950C455.195 936.427 467.758 925.519 483.256 925.519C498.755 925.519 511.317 936.427 511.633 950L540.041 950C540.357 936.427 552.92 925.519 568.418 925.519C583.916 925.519 596.479 936.427 596.795 950L625.203 950C625.519 936.427 638.082 925.519 653.58 925.519C669.078 925.519 681.641 936.427 681.957 950L710.365 950C710.68 936.427 723.243 925.519 738.742 925.519C754.24 925.519 766.803 936.427 767.118 950L767.56 949.334ZM57.3847 899.373L57.3848 50.0438L739.184 50.0439L739.183 899.373L57.3847 899.373Z" fill="white"/>
<path d="M741.767 901.542L46.3604 901.542L46.3605 48.1448L741.767 48.1449L741.767 901.542Z" fill="white"/>
</svg>
